<svg xmlns="http://www.w3.org/2000/svg" viewBox="0 0 39.96 37.99"><defs><style>.cls-1{fill:none;}.cls-2{fill:#2193b0;}.cls-3{fill:#ffc107;}</style></defs><title>Ativo 3</title><g id="Camada_2" data-name="Camada 2"><g id="icons"><polygon class="cls-1" points="16.95 31.79 16.95 31.29 16.95 30.78 16.45 30.87 15.96 30.95 15.96 31.46 15.96 31.96 16.45 31.88 16.95 31.79"/><path class="cls-2" d="M37.62,7.38h-13l-.93-5.44A2.35,2.35,0,0,0,21.38,0L21,0l-19,3.29A2.34,2.34,0,0,0,0,6L4.44,31.57a2.34,2.34,0,0,0,2.3,2,1.81,1.81,0,0,0,.4,0L16,32v-.5l.49-.09.5-.08V9.72A1.84,1.84,0,0,1,17,9.47,1.47,1.47,0,0,1,17.16,9h0a1.35,1.35,0,0,1,.26-.32l.14-.09a1.4,1.4,0,0,1,.24-.15,1.3,1.3,0,0,1,.49-.1H37.62A1.35,1.35,0,0,1,39,9.72V35.65A1.34,1.34,0,0,1,37.62,37H18.3A1.34,1.34,0,0,1,17,35.65V31.79l-.5.09L16,32v3.69A2.34,2.34,0,0,0,18.3,38H37.62A2.34,2.34,0,0,0,40,35.65V9.72A2.34,2.34,0,0,0,37.62,7.38ZM7,32.5a.86.86,0,0,1-.23,0,1.34,1.34,0,0,1-1.32-1.11L1,5.85A1.35,1.35,0,0,1,2.11,4.3L21.15,1l.23,0a1.34,1.34,0,0,1,1.33,1.12l.91,5.27H18.3a2.33,2.33,0,0,0-2,1.2L8.33,10a.47.47,0,0,0-.38.54v.06a.48.48,0,0,0,.54.38L16,9.64a.22.22,0,0,0,0,.08v3l-7,1.2a.47.47,0,0,0-.38.54v.06a.46.46,0,0,0,.54.38L16,13.7v3.05L9.69,17.83a.47.47,0,0,0-.38.54v.06a.46.46,0,0,0,.54.38l6.1-1V31Z"/><rect class="cls-2" x="23" y="15" width="12" height="1" rx="0.47" ry="0.47"/><circle class="cls-2" cx="21.5" cy="15.5" r="0.5"/><rect class="cls-2" x="23" y="19" width="12" height="1" rx="0.47" ry="0.47"/><circle class="cls-2" cx="21.5" cy="19.5" r="0.5"/><rect class="cls-2" x="23" y="23" width="12" height="1" rx="0.47" ry="0.47"/><circle class="cls-2" cx="21.5" cy="23.5" r="0.5"/><path class="cls-2" d="M7,10.69a.51.51,0,0,0-.58-.41.5.5,0,0,0,.17,1A.51.51,0,0,0,7,10.69Z"/><path class="cls-2" d="M7.65,14.63a.5.5,0,1,0-.41.58A.51.51,0,0,0,7.65,14.63Z"/><path class="cls-2" d="M7.75,18.16a.51.51,0,0,0-.41.58.5.5,0,1,0,1-.17A.51.51,0,0,0,7.75,18.16Z"/><path class="cls-3" d="M26.82,30.9c.61-1.11,1-.31,1.27.28s.77,1,1,.66,1-1.89,1.44-2,1.33,3.05,1.46,3.05a17.57,17.57,0,0,0,.54-2.53c.2-.89.86-.76,1.27-.41A11.69,11.69,0,0,1,35,31.45"/></g></g></svg>