<?xml version="1.0" encoding="utf-8"?>
<!-- Generator: Adobe Illustrator 22.1.0, SVG Export Plug-In . SVG Version: 6.00 Build 0)  -->
<svg version="1.1" id="Camada_1" xmlns="http://www.w3.org/2000/svg" xmlns:xlink="http://www.w3.org/1999/xlink" x="0px" y="0px"
	 viewBox="0 0 30.1 39.9" style="enable-background:new 0 0 30.1 39.9;" xml:space="preserve">
<style type="text/css">
	.st0{fill:#FFFFFF;}
	.st1{fill:#6DD5ED;}
</style>
<title>Ativo 4</title>
<g id="Camada_2_1_">
	<g id="icons">
		<path class="st0" d="M19.9,24.1c2.6-0.8,4.9-2.5,6.4-4.7c1.5-2.1,2-4.2,1.4-6C24.9,5.1,20.3,0.4,14.5,0S4.2,3.8,1.3,12.1
			c-0.8,2.5-0.4,5.2,1.1,7.3c1.3,2.3,3.6,4,6.3,4.5C9.2,24,9.8,24,10.3,24C4.1,26,0,31.7,0,39.4c0,0.3,0.2,0.5,0.4,0.5
			c0,0,0,0,0.1,0C0.8,40,1,39.8,1,39.5c0,0,0,0,0-0.1c0-7.6,3.9-13.1,10.3-14.6c0.5,1.2,1.6,2.1,2.9,2.2c1.6,0.1,3.1-0.9,3.6-2.5
			c6.9,1.3,11.3,6.9,11.3,14.9c0,0.3,0.2,0.5,0.5,0.5s0.5-0.2,0.5-0.5C30.1,31.8,26.1,26,19.9,24.1z M14.7,25.9
			c-1,0.1-2-0.5-2.4-1.4C12.1,24.3,12,24,12,23.6v-2.4c1.6,0.4,3.4,0.4,5,0v2c0,0.1,0,0.2,0,0.2C17,24.7,16,25.8,14.7,25.9
			L14.7,25.9z M2.3,12.5C3.7,8.2,7.1,1.3,13.3,1c0.4,0,0.8,0,1.1,0c1.3,0.1,2.6,0.4,3.8,1c1.9,0.9,3.5,2.3,4.7,4
			c0.5,0.7,1,1.5,1.5,2.2c0.9,1.7,1.7,3.5,2.3,5.3c0.5,1.8,0,3.7-1.2,5.1c-1.7,2.6-4.4,4.3-7.5,4.7v-2.6c0.9-0.3,1.8-0.8,2.7-1.4
			l0.2-0.1c0.3-0.2,0.5-0.5,0.8-0.8c0.3-0.5,0.5-1.1,0.7-1.6c0.2-0.4,0.3-0.9,0.4-1.3c0.3-1.6,0.3-3.3-0.2-4.9v-0.1
			c-0.6-1.1-5.7-1.9-8.1-2.2l-1.9-2.8c-0.2-0.2-0.4-0.4-0.7-0.3s-1.3,0.2-3.4,10c-0.2,1.2,0.1,2.4,0.7,3.5c0.2,0.3,0.4,0.6,0.6,0.8
			c0.4,0.5,0.8,0.9,1.3,1.2V23c-0.7,0-1.4,0-2.1-0.1c-2-0.2-4.2-1.8-5.6-4C2,17,1.7,14.7,2.3,12.5z M11.2,19.8
			c-1.4-0.9-2.2-2.5-1.9-4.2c0.6-3.1,1.4-6.1,2.5-9l1.9,2.8h0.2c3.3,0.4,7.1,1.2,7.6,1.7c0.7,2.3,0.4,4.8-0.8,6.9
			c-0.8,0.8-1.8,1.4-2.9,1.8c-1.1,0.3-2.2,0.6-3.3,0.7c-0.8,0-1.6-0.1-2.4-0.3C11.8,20.1,11.5,20,11.2,19.8z"/>
		<path class="st1" d="M22.5,31.9H21v-1.5c0-0.3-0.2-0.5-0.5-0.5S20,30.2,20,30.4v1.5h-1.5c-0.3,0-0.5,0.2-0.5,0.5s0.2,0.5,0.5,0.5
			H20v1.5c0,0.3,0.2,0.5,0.5,0.5s0.5-0.2,0.5-0.5v-1.5h1.5c0.3,0,0.5-0.2,0.5-0.5S22.8,31.9,22.5,31.9z"/>
	</g>
</g>
</svg>
