<svg xmlns="http://www.w3.org/2000/svg" viewBox="0 0 35.85 39.98"><defs><style>.cls-1{fill:#2193b0;}.cls-2{fill:#fff;}.cls-3{fill:#ffc107;}</style></defs><title>Ativo 2</title><g id="Camada_2" data-name="Camada 2"><g id="icons"><path class="cls-1" d="M34.72,2.34A4.74,4.74,0,0,0,31,1h0a.7.7,0,0,0-.54-.7l-1-.2A1.25,1.25,0,0,0,28,1.32h0a1.25,1.25,0,0,0,1.45,1.27l1-.18A.68.68,0,0,0,30.92,2a3.89,3.89,0,0,1,3,1c1.43,1.65.88,5.61,0,12.17L33.54,18l0,1c-5.06,4.84-9.6,4.83-14.7,0l-.06-.86C18.56,17,18.38,16,18.21,15c-1.07-6.21-1.78-10.31-.38-12,.58-.69,1.57-1,3.1-1H21l.11,0a.68.68,0,0,0,.44.34l1,.2A1.25,1.25,0,0,0,24,1.29h0A1.25,1.25,0,0,0,22.55,0l-1,.18A.69.69,0,0,0,21,.88V1h0c-1.88,0-3.15.42-4,1.37-1.7,2-1,6.05.16,12.77l.53,3.08.06.9a.44.44,0,0,0,0,.2l.26,4.12c0,3.84,4.05,6.44,7.91,6.54a8.58,8.58,0,0,1-4.3,7.52c-3.63,2.09-8.93,1.94-12.89-.36A8.87,8.87,0,0,1,4,29.3c0-5.39,2.63-6.53,5.4-7.72S15,19.18,15,14A5.93,5.93,0,0,0,8.84,8h0A6.13,6.13,0,0,0,3,12H3a3.05,3.05,0,1,0,1,.19A5.11,5.11,0,0,1,8.81,9h0A5,5,0,0,1,14,14c0,4.52-2.33,5.51-5,6.66S3,23.25,3,29.3A9.86,9.86,0,0,0,8.3,38a15,15,0,0,0,7.46,2,12.94,12.94,0,0,0,6.43-1.6A9.7,9.7,0,0,0,27,30c3.65-.32,7.29-2.85,7.29-6.49l.25-5.41c.13-1,.26-1.88.38-2.75C35.91,8.23,36.46,4.33,34.72,2.34ZM26.21,29c-3.44,0-7.13-2.23-7.13-5.58l-.19-3c2.48,2.14,4.88,3.22,7.28,3.22s4.8-1.08,7.26-3.23l-.14,3C33.29,26.77,29.63,29,26.21,29Z"/><circle class="cls-2" cx="3" cy="15" r="2"/><path class="cls-3" d="M3,13a2,2,0,1,0,2,2,2,2,0,0,0-2-2Z"/></g></g></svg>